<?xml version="1.0" encoding="UTF-8"?>
<svg id="neon-t-1" xmlns="http://www.w3.org/2000/svg" viewBox="0 0 257.68 218.5">
  <defs>
    <style>
      .cls-1 {
        fill: #ff8933;
      }

      .cls-2 {
        fill: #400500;
      }

      .cls-3 {
        fill: #ff4533;
      }
    </style>
  </defs>
  <path id="_1" data-name="1" class="cls-2" d="M248.67,218.5h-21.93c-43.39,0-76.29-14.39-97.91-42.8-21.62,28.41-54.52,42.8-97.91,42.8H9c-4.97,0-9-4.03-9-9v-43.85c0-4.97,4.03-9,9-9H30.93c31.6,0,42.8-9.61,49.58-19,10.67-14.78,14.15-32.77,14.34-75.8H9c-4.97,0-9-4.03-9-9V9C0,4.03,4.03,0,9,0H248.67c4.97,0,9,4.03,9,9V52.85c0,4.97-4.03,9-9,9h-85.85c.2,43.03,3.67,61.02,14.34,75.8,12.09,16.74,31.85,19,49.59,19h21.93c4.97,0,9,4.03,9,9v43.85c0,4.97-4.04,9-9.01,9Zm-119.84-63.63c4.62,0,8.94,2.28,11.55,6.09,17.94,26.24,46.99,39.54,86.35,39.54h12.93v-25.85h-12.93c-19.35,0-47.05-2.74-64.18-26.46-13.61-18.84-17.76-39.95-17.76-90.34,0-7.72,6.28-14,14-14h80.86V18H18v25.85H98.86c7.72,0,14,6.28,14,14,0,50.39-4.15,71.49-17.76,90.34-8.21,11.36-23.79,26.46-64.18,26.46h-12.92v25.85h12.93c39.36,0,68.41-13.3,86.35-39.53,2.61-3.82,6.93-6.1,11.55-6.1Z"/>
  <path id="_2" data-name="2" class="cls-3" d="M248.67,215h-21.93c-44.14,0-77.08-15.22-97.91-45.25-20.83,30.03-53.76,45.25-97.9,45.25H9c-3.04,0-5.5-2.46-5.5-5.5v-43.85c0-3.04,2.46-5.5,5.5-5.5H30.93c33.37,0,45.54-10.93,52.42-20.45,11.47-15.88,14.99-34.92,15.01-81.35H9c-3.04,0-5.5-2.46-5.5-5.5V9c0-3.04,2.46-5.5,5.5-5.5H248.67c3.04,0,5.5,2.46,5.5,5.5V52.85c0,3.04-2.46,5.5-5.5,5.5h-89.37c.03,46.43,3.55,65.47,15.01,81.35,13.09,18.13,34.89,20.45,52.42,20.45h21.93c3.04,0,5.5,2.46,5.5,5.5v43.85c0,3.04-2.46,5.5-5.49,5.5Zm-119.84-56.63c3.47,0,6.71,1.71,8.67,4.57,18.63,27.25,48.66,41.06,89.24,41.06h16.43v-32.85h-16.43c-20.15,0-45.33-2.84-61.34-25.01-13.1-18.14-17.1-38.77-17.1-88.29,0-5.79,4.71-10.5,10.5-10.5h84.36V14.5H14.5V47.35H98.86c5.79,0,10.5,4.71,10.5,10.5,0,49.52-3.99,70.15-17.1,88.29-8.41,11.65-22.98,25.01-61.34,25.01H14.5v32.85H30.93c40.58,0,70.61-13.81,89.24-41.06,1.95-2.86,5.19-4.57,8.66-4.57Z"/>
  <path id="_3" data-name="3" class="cls-1" d="M248.67,211h-21.93c-43.03,0-75-14.84-95.02-44.11-.65-.96-1.73-1.53-2.89-1.53s-2.24,.57-2.89,1.53c-20.01,29.27-51.98,44.11-95.01,44.11H9c-.83,0-1.5-.67-1.5-1.5v-43.85c0-.83,.67-1.5,1.5-1.5H30.93c35.18,0,48.23-11.82,55.66-22.11,12.09-16.74,15.77-36.41,15.77-84.19,0-1.93-1.57-3.5-3.5-3.5H9c-.83,0-1.5-.67-1.5-1.5V9c0-.83,.67-1.5,1.5-1.5H248.67c.83,0,1.5,.67,1.5,1.5V52.85c0,.83-.67,1.5-1.5,1.5h-89.87c-1.93,0-3.5,1.57-3.5,3.5,0,47.79,3.68,67.46,15.77,84.19,14.15,19.6,37.18,22.11,55.67,22.11h21.93c.83,0,1.5,.67,1.5,1.5v43.85c0,.83-.68,1.5-1.5,1.5Zm-119.84-48.63c2.15,0,4.15,1.06,5.36,2.83,19.42,28.4,50.56,42.8,92.54,42.8h20.43v-40.85h-20.43c-19.2,0-43.15-2.65-58.1-23.35-12.52-17.34-16.34-37.42-16.34-85.95,0-3.58,2.92-6.5,6.5-6.5h88.36V10.5H10.5V51.35H98.86c3.58,0,6.5,2.92,6.5,6.5,0,48.53-3.82,68.61-16.34,85.95-7.85,10.87-21.55,23.35-58.1,23.35H10.5v40.85H30.93c41.98,0,73.12-14.4,92.54-42.8,1.21-1.77,3.22-2.83,5.36-2.83Z"/>
</svg>