<?xml version="1.0" encoding="UTF-8"?>
<svg id="neon-g-1" xmlns="http://www.w3.org/2000/svg" viewBox="0 0 257.67 218.5">
  <defs>
    <style>
      .cls-1 {
        fill: #ff8933;
      }

      .cls-2 {
        fill: #400500;
      }

      .cls-3 {
        fill: #ff4533;
      }
    </style>
  </defs>
  <path id="_1" data-name="1" class="cls-2" d="M248.66,218.5H9c-4.97,0-9-4.03-9-9V9C0,4.03,4.03,0,9,0H248.66c4.97,0,9,4.03,9,9V52.85c0,4.97-4.03,9-9,9H61.85v94.8H192.32c-1.22-3.71-2.76-6.49-4.59-8.3-3.76-3.73-13.78-8.17-40.17-8.17h-60.23c-4.97,0-9-4.03-9-9v-43.85c0-4.97,4.03-9,9-9h60.24c26.72,0,60.38,2.97,83.71,26.1,23.39,23.19,26.39,56.62,26.39,83.15v21.92c0,4.97-4.04,9-9.01,9ZM18,200.5H239.66v-12.92c0-23.04-2.39-51.86-21.06-70.37s-47.77-20.88-71.04-20.88h-51.23v25.85h51.24c26.83,0,43.62,4.25,52.84,13.39,5.14,5.09,8.67,12.32,10.82,22.09,.91,4.17-.1,8.46-2.77,11.77-2.67,3.32-6.65,5.22-10.91,5.22H57.85c-7.72,0-14-6.28-14-14V57.85c0-7.72,6.28-14,14-14H239.66V18H18V200.5Z"/>
  <path id="_2" data-name="2" class="cls-3" d="M248.32,214.75H8.66c-3.04,0-5.5-2.46-5.5-5.5V8.75c0-3.04,2.46-5.5,5.5-5.5H248.32c3.04,0,5.5,2.46,5.5,5.5V52.6c0,3.04-2.46,5.5-5.5,5.5H58.01v101.8H196.58c-1.52-6.64-3.72-11.32-6.72-14.29-6.15-6.09-20.49-9.18-42.63-9.18h-60.24c-3.04,0-5.5-2.46-5.5-5.5v-43.85c0-3.04,2.46-5.5,5.5-5.5h60.24c26.05,0,58.82,2.85,81.25,25.08,22.47,22.28,25.36,54.81,25.36,80.67v21.92c-.02,3.04-2.48,5.5-5.52,5.5ZM14.16,203.75H242.82v-16.42c0-23.72-2.51-53.44-22.1-72.86-19.58-19.41-49.56-21.89-73.5-21.89h-54.73v32.85h54.74c25.85,0,41.86,3.93,50.37,12.37,4.64,4.6,7.87,11.26,9.86,20.36,.68,3.13-.08,6.34-2.08,8.83s-4.98,3.92-8.18,3.92H57.51c-5.79,0-10.5-4.71-10.5-10.5V57.6c0-5.79,4.71-10.5,10.5-10.5H242.82V14.25H14.16V203.75Z"/>
  <path id="_3" data-name="3" class="cls-1" d="M248.33,210.75H8.67c-.83,0-1.5-.67-1.5-1.5V8.75c0-.83,.67-1.5,1.5-1.5H248.33c.83,0,1.5,.67,1.5,1.5V52.6c0,.83-.67,1.5-1.5,1.5H57.51c-1.93,0-3.5,1.57-3.5,3.5v102.8c0,1.93,1.57,3.5,3.5,3.5H197.21c1.07,0,2.06-.48,2.73-1.31s.92-1.9,.69-2.94c-1.69-7.74-4.29-13.26-7.95-16.88-7.02-6.96-21.89-10.34-45.45-10.34h-60.23c-.83,0-1.5-.67-1.5-1.5v-43.85c0-.83,.67-1.5,1.5-1.5h60.24c25.28,0,57.04,2.72,78.43,23.92,21.42,21.24,24.17,52.75,24.17,77.83v21.92c0,.83-.68,1.5-1.51,1.5Zm-238.16-3H246.83v-20.42c0-24.5-2.65-55.24-23.28-75.7-20.61-20.43-51.61-23.05-76.32-23.05h-58.73v40.85h58.74c24.39,0,39.95,3.67,47.56,11.21,4.08,4.04,6.95,10.05,8.77,18.37,.42,1.94-.05,3.93-1.29,5.47-1.24,1.54-3.09,2.42-5.06,2.42H57.51c-3.58,0-6.5-2.92-6.5-6.5V57.6c0-3.58,2.92-6.5,6.5-6.5H246.83V10.25H10.17V207.75Z"/>
</svg>