<?xml version="1.0" encoding="UTF-8"?>
<svg id="neon-r-1" xmlns="http://www.w3.org/2000/svg" viewBox="0 0 257.8 219.05">
  <defs>
    <style>
      .cls-1 {
        fill: #ff8933;
      }

      .cls-2 {
        fill: #400500;
      }

      .cls-3 {
        fill: #ff4533;
      }
    </style>
  </defs>
  <path id="_1" data-name="1" class="cls-2" d="M248.66,219.05h-61.09c-26.44,0-59.78-2.97-83.07-26.14-23.22-23.11-26.45-56.42-26.67-82.85l-.19-22.11c-.02-2.4,.92-4.71,2.61-6.41s3.99-2.66,6.39-2.66h108.87l.1-16.56-133.76-.34V210.04c0,4.97-4.03,9-9,9H9c-4.97,0-9-4.03-9-9V9C0,6.61,.95,4.32,2.64,2.63,4.33,.94,6.62,0,9,0h.02L248.82,.6c2.39,0,4.68,.96,6.37,2.66s2.62,4,2.61,6.39l-.76,122.12c-.03,4.95-4.05,8.94-9,8.94h-104.57c1.26,3.71,2.82,6.51,4.67,8.35,5.42,5.4,18.69,8.13,39.44,8.13h61.09c4.97,0,9,4.03,9,9v43.85c0,4.98-4.03,9.01-9.01,9.01ZM95.73,96.87l.11,13.03c.19,23,2.79,51.76,21.37,70.24,18.61,18.52,47.39,20.9,70.37,20.9h52.09v-25.84h-52.09c-26.76,0-42.84-4.12-52.14-13.37-5.11-5.09-8.67-12.29-10.88-22-.95-4.17,.04-8.49,2.71-11.84,2.67-3.35,6.66-5.27,10.94-5.27h100.88l.65-104.14-221.74-.56V201.04h25.85V57.97c0-3.69,1.5-7.31,4.11-9.91,2.64-2.63,6.15-4.09,9.89-4.09t141.83,.35c3.7,0,7.31,1.52,9.91,4.15,2.63,2.65,4.07,6.18,4.05,9.93l-.15,24.55c-.05,7.67-6.33,13.91-14,13.91H95.73Z"/>
  <path id="_2" data-name="2" class="cls-3" d="M248.26,216.03h-61.09c-25.77,0-58.22-2.86-80.6-25.12-22.32-22.21-25.43-54.63-25.64-80.4l-.19-22.11c-.01-1.47,.56-2.88,1.59-3.92s2.44-1.63,3.91-1.63h112.36l.15-23.55-140.8-.35V210.52c0,3.04-2.46,5.5-5.5,5.5H8.6c-3.04,0-5.5-2.46-5.5-5.5V9.47c0-1.46,.58-2.86,1.62-3.89,1.03-1.03,2.42-1.61,3.88-1.61h.01l239.8,.6c1.46,0,2.86,.59,3.89,1.63s1.6,2.44,1.59,3.91l-.76,122.12c-.02,3.02-2.48,5.47-5.5,5.47h-109.2c1.58,6.64,3.81,11.33,6.83,14.33,6.19,6.16,19.9,9.15,41.91,9.15h61.09c3.04,0,5.5,2.46,5.5,5.5v43.85c0,3.02-2.46,5.49-5.5,5.49ZM91.8,93.85l.14,16.56c.2,23.66,2.92,53.31,22.4,72.7,19.52,19.42,49.18,21.92,72.84,21.92h55.59v-32.85h-55.59c-25.77,0-41.08-3.81-49.67-12.35-4.63-4.61-7.88-11.25-9.94-20.3-.71-3.13,.03-6.37,2.03-8.88,2-2.51,4.99-3.95,8.21-3.95h104.36l.7-111.13L14.1,14.98V205.01H46.95V58.44c0-2.77,1.12-5.48,3.09-7.44,1.98-1.98,4.61-3.06,7.41-3.06t141.82,.35c2.77,0,5.48,1.14,7.43,3.11,1.97,1.99,3.06,4.64,3.04,7.45l-.15,24.55c-.04,5.75-4.75,10.43-10.5,10.43H91.8Z"/>
  <path id="_3" data-name="3" class="cls-1" d="M248.26,212.03h-61.09c-25,0-56.44-2.72-77.78-23.95-21.29-21.18-24.25-52.6-24.46-77.6l-.19-22.11c0-.4,.15-.78,.44-1.07s.67-.44,1.06-.44h112.84c1.92,0,3.49-1.56,3.5-3.48l.15-24.54c0-.94-.35-1.82-1.01-2.49-.65-.66-1.55-1.03-2.48-1.04,0,0-141.7-.35-141.81-.35-.93,0-1.81,.36-2.47,1.02s-1.03,1.55-1.03,2.48V210.53c0,.83-.67,1.5-1.5,1.5H8.6c-.83,0-1.5-.67-1.5-1.5V9.47c0-.4,.16-.78,.44-1.06,.28-.28,.66-.44,1.06-.44h0l239.8,.6c.4,0,.78,.16,1.06,.44s.44,.67,.43,1.07l-.76,122.12c0,.82-.67,1.49-1.5,1.49h-109.82c-1.07,0-2.07,.48-2.74,1.32-.67,.84-.92,1.92-.68,2.96,1.75,7.72,4.39,13.24,8.05,16.89,7.07,7.04,21.29,10.31,44.73,10.31h61.09c.83,0,1.5,.67,1.5,1.5v43.85c0,.82-.67,1.5-1.5,1.5ZM87.77,89.85l.17,20.6c.2,24.43,3.07,55.09,23.58,75.5,20.56,20.46,51.23,23.08,75.66,23.08h59.59v-40.85h-59.59c-24.29,0-39.18-3.55-46.85-11.19-4.08-4.06-6.98-10.06-8.86-18.35-.44-1.94,.02-3.94,1.26-5.5,1.24-1.55,3.09-2.45,5.08-2.45h108.34l.74-119.12L10.1,10.97V209.01H50.95V58.44c0-1.71,.7-3.39,1.91-4.6,1.23-1.22,2.86-1.9,4.59-1.9t141.81,.35c1.72,0,3.39,.71,4.6,1.93,1.22,1.23,1.89,2.87,1.88,4.62l-.15,24.54c-.02,3.56-2.94,6.46-6.5,6.46H87.77Z"/>
</svg>