<?xml version="1.0" encoding="UTF-8"?>
<svg id="neon-s-1" xmlns="http://www.w3.org/2000/svg" viewBox="0 0 257.67 218.5">
  <defs>
    <style>
      .cls-1 {
        fill: #ff8933;
      }

      .cls-2 {
        fill: #400500;
      }

      .cls-3 {
        fill: #ff4533;
      }
    </style>
  </defs>
  <path id="_1" data-name="1" class="cls-2" d="M248.67,218.5H9c-4.97,0-9-4.03-9-9v-43.85c0-4.97,4.03-9,9-9H195.81v-16.48H109.25c-26.48,0-59.84-2.98-83.06-26.19C2.98,90.77,0,57.4,0,30.92V9C0,4.03,4.03,0,9,0H248.66c4.97,0,9,4.03,9,9V52.85c0,4.97-4.03,9-9,9H65.37c1.23,3.78,2.75,6.59,4.56,8.4,3.69,3.69,13.5,8.08,39.33,8.08H248.67c4.97,0,9,4.03,9,9v122.17c0,4.97-4.03,9-9,9ZM18,200.5H239.66V96.33H109.25c-26.41,0-42.95-4.24-52.05-13.35-5.05-5.05-8.56-12.29-10.71-22.14-.91-4.16,.1-8.45,2.78-11.77,2.66-3.31,6.64-5.22,10.9-5.22H239.67V18H18v12.92c0,23,2.38,51.79,20.92,70.33,18.54,18.54,47.33,20.92,70.33,20.92h90.56c7.72,0,14,6.28,14,14v24.48c0,7.72-6.28,14-14,14H18v25.85Z"/>
  <path id="_2" data-name="2" class="cls-3" d="M248.33,214.75H8.67c-3.04,0-5.5-2.46-5.5-5.5v-43.85c0-3.04,2.46-5.5,5.5-5.5H198.97v-23.48H108.92c-25.8,0-58.28-2.86-80.58-25.17C6.03,88.95,3.17,56.48,3.17,30.67V8.75c0-3.04,2.46-5.5,5.5-5.5H248.33c3.04,0,5.5,2.46,5.5,5.5V52.6c0,3.04-2.46,5.5-5.5,5.5H60.46c1.54,6.72,3.72,11.43,6.66,14.37,6.04,6.04,20.1,9.1,41.8,9.1H248.33c3.04,0,5.5,2.46,5.5,5.5v122.18c0,3.04-2.46,5.5-5.49,5.5ZM14.17,203.75H242.83V92.58H108.92c-25.42,0-41.17-3.92-49.58-12.32-4.57-4.57-7.76-11.24-9.77-20.41-.68-3.12,.08-6.34,2.08-8.83,2-2.49,4.98-3.91,8.18-3.91H242.83V14.25H14.17V30.67c0,23.68,2.49,53.36,21.94,72.81,19.45,19.45,49.13,21.95,72.81,21.95h90.56c5.79,0,10.5,4.71,10.5,10.5v24.48c0,5.79-4.71,10.5-10.5,10.5H14.17v32.84Z"/>
  <path id="_3" data-name="3" class="cls-1" d="M248.34,210.75H8.67c-.83,0-1.5-.67-1.5-1.5v-43.85c0-.83,.67-1.5,1.5-1.5H199.48c1.93,0,3.5-1.57,3.5-3.5v-24.48c0-1.93-1.57-3.5-3.5-3.5H108.92c-25.03,0-56.49-2.73-77.76-24S7.16,55.69,7.16,30.66V8.75c0-.83,.67-1.5,1.5-1.5H248.32c.83,0,1.5,.67,1.5,1.5V52.6c0,.83-.67,1.5-1.5,1.5H59.83c-1.06,0-2.06,.48-2.72,1.3-.67,.83-.92,1.9-.69,2.94,1.71,7.82,4.29,13.36,7.88,16.96,6.91,6.91,21.51,10.27,44.63,10.27H248.34c.83,0,1.5,.67,1.5,1.5v122.18c0,.83-.68,1.5-1.5,1.5Zm-238.17-3H246.83V88.58H108.92c-23.95,0-39.25-3.65-46.75-11.15-4.01-4.01-6.85-10.04-8.69-18.44-.42-1.93,.05-3.92,1.29-5.46s3.08-2.42,5.06-2.42H246.83V10.25H10.17V30.67c0,24.45,2.63,55.15,23.12,75.63,20.49,20.49,51.18,23.12,75.63,23.12h90.56c3.58,0,6.5,2.92,6.5,6.5v24.48c0,3.58-2.92,6.5-6.5,6.5H10.17v40.85Z"/>
</svg>