<?xml version="1.0" encoding="UTF-8"?>
<svg id="Layer_1" data-name="Layer 1" xmlns="http://www.w3.org/2000/svg" viewBox="0 0 383.19 383.31">
  <defs>
    <style>
      .cls-1 {
        fill: #535353;
      }

      .cls-1, .cls-2, .cls-3, .cls-4, .cls-5, .cls-6, .cls-7, .cls-8, .cls-9, .cls-10, .cls-11, .cls-12, .cls-13, .cls-14, .cls-15, .cls-16, .cls-17, .cls-18 {
        stroke-width: 0px;
      }

      .cls-2 {
        fill: #8e8e8e;
      }

      .cls-3 {
        fill: #989898;
      }

      .cls-4 {
        fill: #686868;
      }

      .cls-5 {
        fill: #343434;
      }

      .cls-6 {
        fill: #777;
      }

      .cls-7 {
        fill: #484848;
      }

      .cls-8 {
        fill: #888;
      }

      .cls-9 {
        fill: #5f5f5f;
      }

      .cls-10 {
        fill: #5c80bc;
      }

      .cls-11 {
        fill: #cbcbcb;
      }

      .cls-12 {
        fill: #bcbcbc;
      }

      .cls-13 {
        fill: #a5a5a5;
      }

      .cls-14 {
        fill: #a8a8a8;
      }

      .cls-15 {
        fill: #444;
      }

      .cls-16 {
        fill: #191919;
      }

      .cls-17 {
        fill: #767676;
      }

      .cls-18 {
        fill: #303030;
      }
    </style>
  </defs>
  <path class="cls-10" d="M103.26,383.31c-4.37-2.59-5.13-6.38-4.2-11.11,2.74-14.06,9.41-25.78,20.2-35.21,2.27-1.98,4.58-2.91,7.68-2.95,22.16-.25,44.34.27,66.48-.89,4.71-.25,9.44-.77,14.08-1.6,2.87-.51,3.16.44,2.6,2.77-5.39,22.42-18.76,37.67-40.65,45.25-7.63,2.64-15.58,3.07-23.58,3.03-.97,0-2.27-.72-2.95.7h-3.74c-.77-.68-1.71-.27-2.57-.39-.92,0-1.84,0-2.76,0-.95,0-1.89,0-2.84,0-.77,0-1.54,0-2.31,0-.97,0-1.94,0-2.91,0-.78,0-1.56,0-2.33,0-.97,0-1.94,0-2.91,0-.96,0-1.91,0-2.87,0-.75,0-1.5,0-2.25,0-1.06.15-2.2-.36-3.19.39h-8.98Z"/>
  <path class="cls-10" d="M0,237.4c1.69-2.06.7-4.48.75-6.69.61-27.03,18.35-50.01,44.35-57.26,7.12-1.99,7.01-2,6.01,5.33-1.04,7.54-1.51,15.13-1.58,22.74-.17,18.33-.36,36.66-.43,54.99,0,2.41-.72,4.27-2.25,6.07-9.82,11.59-22.23,18.53-37.18,21.12-4.39.76-7.36-.93-9.68-4.39v-4.49c.79-1.25.21-2.64.39-3.96,0-1.19,0-2.39,0-3.58,0-1.22,0-2.45,0-3.67,0-1.24,0-2.47,0-3.71,0-1.23,0-2.47,0-3.7,0-1.22,0-2.43,0-3.65-.2-1.55.43-3.17-.39-4.67v-10.48Z"/>
  <path class="cls-13" d="M0,247.87c1.6,1.29.43,2.98.63,4.47-.2.35-.4.37-.63.02v-4.49Z"/>
  <path class="cls-2" d="M0,252.36c.21-.02.42-.03.63-.02,0,1.25,0,2.49,0,3.74-.19.37-.4.36-.62.03v-3.74Z"/>
  <path class="cls-17" d="M0,256.1c.21-.02.42-.03.62-.03,0,1.25,0,2.49,0,3.74-.19.37-.4.37-.63.03v-3.74Z"/>
  <path class="cls-9" d="M0,259.84c.21-.02.42-.03.63-.03,0,1.24,0,2.49,0,3.73-.19.37-.4.39-.63.04v-3.74Z"/>
  <path class="cls-7" d="M0,263.59c.21-.01.42-.02.63-.04,0,1.25.02,2.49.03,3.74-.2.38-.42.39-.66.04v-3.74Z"/>
  <path class="cls-18" d="M0,267.33c.22,0,.44-.02.66-.04.01,1.25.03,2.5.04,3.75-.22.38-.45.37-.7.04v-3.74Z"/>
  <path class="cls-16" d="M0,271.07c.24,0,.47-.01.7-.04-.09,1.29.53,2.7-.7,3.78v-3.74Z"/>
  <path class="cls-5" d="M112.24,383.31c.79-1.14,1.97-.64,3.01-.7.23.16.31.32.23.47-.08.15-.16.23-.24.23h-2.99Z"/>
  <path class="cls-1" d="M117.5,382.65c1,0,2,.02,3,.03.22.15.29.29.21.43-.08.13-.16.2-.24.2h-2.99c-.25-.15-.33-.3-.24-.45.09-.14.17-.21.26-.21Z"/>
  <path class="cls-4" d="M120.47,383.31c0-.21.01-.42.03-.63.99,0,1.99-.02,2.98-.03.23.15.31.3.23.44-.08.14-.16.21-.24.21h-2.99Z"/>
  <path class="cls-8" d="M125.73,382.68h2.99c.23.14.31.28.23.42-.08.14-.16.21-.24.21h-2.99c-.25-.15-.33-.29-.24-.43.09-.13.17-.2.26-.2Z"/>
  <path class="cls-14" d="M130.96,382.69c1,0,2,0,2.99,0,.23.14.31.29.22.42-.08.13-.16.2-.24.2h-2.99c-.25-.14-.33-.28-.24-.42.08-.13.17-.2.25-.2Z"/>
  <path class="cls-12" d="M133.94,383.31c0-.21,0-.42.02-.62,1,0,1.99,0,2.99,0,.24.14.31.29.23.42-.08.14-.16.21-.24.21h-2.99Z"/>
  <path class="cls-15" d="M117.5,382.65c-.01.22-.02.44-.02.66h-2.24c0-.23,0-.47.02-.7.75.01,1.5.03,2.25.04Z"/>
  <path class="cls-6" d="M125.73,382.68c-.01.21-.02.42-.02.63h-2.24c0-.22,0-.44.01-.66.75,0,1.5.02,2.25.03Z"/>
  <path class="cls-3" d="M130.96,382.69c-.01.21-.01.41-.01.62h-2.24c0-.21,0-.43.01-.64.75,0,1.5.01,2.24.02Z"/>
  <path class="cls-11" d="M136.93,383.31c0-.21,0-.42,0-.63.8.02,1.79-.65,2.23.63h-2.24Z"/>
  <path class="cls-10" d="M316.15,117.17c-12.29-20.39-28.18-36.59-48.11-48.74-1.58-.96-1.81-1.48-.5-2.92,12.04-13.22,21.81-28.02,30.85-43.41,9.64-16.42,28.34-24.45,47.4-21.1,17.79,3.13,32.63,17.73,36.39,35.8,3.79,18.26-3.91,37.11-19.71,47.36-7.92,5.14-16.33,9.5-24.02,15.02-7.69,5.52-15.03,11.46-22.3,18Z"/>
  <path class="cls-10" d="M178.91,244.77c-1.73.33-2.29-.62-2.97-1.3-12-11.98-23.98-23.99-36.01-35.94-1.1-1.09-1.38-1.98-.95-3.56,4.44-16.32,8.76-32.66,13.08-49.01.46-1.73,1.32-2.55,3.18-3.03,16.12-4.2,32.21-8.53,48.27-12.94,1.95-.54,3.18-.26,4.6,1.18,11.77,11.86,23.59,23.67,35.47,35.42,1.34,1.33,1.58,2.51,1.11,4.25-4.39,16.2-8.74,32.41-13.03,48.64-.48,1.8-1.39,2.56-3.17,3.03-16.23,4.27-32.43,8.66-48.64,13.01-.48.13-.96.26-.94.26Z"/>
  <path class="cls-10" d="M335.25,183.69c26.87,5.03,47.48,28.84,47.76,55.6.33,31.16.12,62.33.08,93.49,0,6.05-4.2,9.36-10.12,8.27-28.67-5.3-48.7-29.28-48.88-58.51-.03-4.49.1-8.98-.02-13.46-.39-14.19.24-27.98,5.45-41.7,5.22-13.76,6.28-28.63,5.73-43.68Z"/>
  <path class="cls-10" d="M198.74,48.1c-9.24-.19-18.27.46-27.25,1.99-9.85,1.68-19.4,4.32-28.65,8.04-1.89.76-3.75,1.16-5.78,1.11-14.69-.34-29.42.79-44.09-.63-25.09-2.43-47.27-23.64-50.96-48.45-.89-5.97,2.43-9.93,8.53-9.94,30.91-.03,61.83-.57,92.72.19,23.63.59,39.74,13.89,50.58,34.17,2.22,4.16,3.9,8.57,4.89,13.53Z"/>
  <path class="cls-10" d="M71.68,273.52c0-9.72.07-19.44-.05-29.15-.03-2.22.71-3.22,2.78-3.98,15.39-5.62,30.75-11.33,46.09-17.09,1.84-.69,3.01-.58,4.5.93,11.29,11.44,22.67,22.8,34.11,34.09,1.47,1.45,1.72,2.57.93,4.47-6.4,15.36-12.74,30.74-18.95,46.17-.86,2.14-2.01,2.64-4.13,2.65-18.06.13-36.13.39-54.19.58-8.34.09-11.71-3.35-11.7-11.75.01-8.97,0-17.94,0-26.91.2,0,.4,0,.61,0Z"/>
  <path class="cls-10" d="M263.81,162.36c-1.7.49-2.44-.66-3.3-1.51-12.51-12.5-24.99-25.04-37.55-37.48-1.32-1.31-1.61-2.6-1.42-4.3,1.58-13.72,3.16-27.45,4.63-41.18.29-2.69,1.08-3.13,3.7-2.25,40.02,13.46,66.28,40.26,78.65,80.66.43,1.39,1.42,2.92-1.29,3.1-14.54.97-29.07,1.99-43.42,2.98Z"/>
  <path class="cls-10" d="M204.16,73.28c-1.54,13.79-3.11,27.64-4.61,41.5-.17,1.61-.91,2.37-2.43,2.77-16.45,4.35-32.9,8.68-49.3,13.18-1.94.53-2.8-.54-3.89-1.39-9.76-7.72-19.45-15.54-29.26-23.2-1.89-1.48-1.93-2.21-.16-3.85,17.42-16.22,37.94-26.1,61.31-30.2,8.49-1.49,17.06-1.86,25.68-1.48,1.78.08,3.39.11,2.66,2.67Z"/>
  <path class="cls-10" d="M312.79,190.74c-.89,29.68-11.32,55.51-31.27,77.53-1.83,2.02-2.72,2.41-4.62-.06-7.37-9.58-14.94-19-22.56-28.39-1.42-1.75-1.71-3.29-1.12-5.43,4.23-15.47,8.38-30.96,12.44-46.47.61-2.33,1.46-3.45,4.14-3.6,13.56-.78,27.11-1.78,40.65-2.81,1.85-.14,2.45.29,2.36,2.13-.12,2.36-.03,4.74-.03,7.1Z"/>
  <path class="cls-10" d="M164.57,310.76c5.77-14.09,11.55-28.21,17.32-42.34.48-1.18,1.33-1.59,2.52-1.9,16.46-4.37,32.91-8.79,49.35-13.26,1.71-.47,2.7,0,3.78,1.36,7.63,9.7,15.3,19.36,23.06,28.94,1.34,1.65.91,2.28-.63,3.34-20.45,14.1-43.01,22.28-67.81,23.77-9.06.54-18.17.09-27.58.09Z"/>
  <path class="cls-10" d="M72.18,217.01c-1.98-33.57,4.29-65.02,23.75-93.14,1.47-2.13,2.27-2.39,4.38-.66,9.33,7.66,18.8,15.15,28.32,22.58,1.74,1.36,2.12,2.57,1.54,4.66-4.35,15.93-8.58,31.9-12.87,47.85-.38,1.41-.75,2.65-2.53,3.29-14,5.08-27.94,10.31-41.9,15.48-.2.08-.48-.04-.69-.06Z"/>
</svg>