<?xml version="1.0" encoding="UTF-8"?>
<svg id="Layer_1" data-name="Layer 1" xmlns="http://www.w3.org/2000/svg" viewBox="0 0 39.64 39.67">
  <defs>
    <style>
      .cls-1 {
        fill: #8c87ad;
      }

      .cls-1, .cls-2 {
        stroke-width: 0px;
      }

      .cls-3 {
        font-family: ColonnaMT, 'Colonna MT';
        font-size: 25.68px;
      }

      .cls-2 {
        fill: #98a077;
      }
    </style>
  </defs>
  <g>
    <path class="cls-1" d="m19.82.25c10.82,0,19.58,8.76,19.58,19.56,0,10.07-7.6,18.35-17.37,19.45l-.09-.66c.14,0,.38-.1.38-.15.01-.37.33-.38.53-.53.19-.13.37-.29.54-.43.38-.3.74-.64,1.16-.89.58-.35,1.18-.64,1.79-.97.09-.05.13-.16.21-.23.2-.18.4-.34.63-.49.1-.08.26-.09.35-.18.81-.78,1.76-1.42,2.31-2.47.08-.14.23-.25.35-.37.58-.5,1.35-.82,1.68-1.6.15-.39.33-.76.5-1.13.32-.68.67-1.36.96-2.05.19-.45.3-.96.43-1.44.03-.09-.03-.28-.1-.3-.3-.14-.61-.33-.92-.34-.68-.04-1.35.01-2.08.03.23-.42.09-.83-.24-1.21-.09-.1-.15-.21-.2-.34-.13-.24-.3-.34-.55-.28-.47.1-.87-.03-1.25-.28-.74-.49-1.53-.74-2.45-.62-.43.06-.95.08-1.37-.23-.08-.05-.3.01-.39.09-.37.3-.72.62-1.03.97-.19.21-.33.29-.58.18-.16-.08-.33-.13-.49-.09-.08,0-.16.03-.26.08-.57.29-1.11-.05-1.12-.71,0-.15-.01-.29-.01-.44.01-.78-.05-.86-.83-.84-1.01.03-1.08-.09-.71-1.03.11-.28.2-.54.29-.82-.74-.16-.84-.11-1.18.45-.05.08-.09.16-.14.24-.23.35-1.22.48-1.47.15-.48-.61-.93-1.22-.64-2.07.09-.24.16-.48.24-.72.16-.45.73-.78,1.21-.71.35.05.69.11,1.1.19-.1-.52.23-.49.54-.48.18.01.37.03.55.05.38.04.63.2.79.59.15.34.47.61.71.91l.15-.08c.01-.16.06-.34.03-.49-.09-.35-.18-.71-.33-1.02-.19-.39-.08-.67.2-.93.08-.08.16-.14.24-.21.43-.42.91-.83.53-1.44.13-.19.23-.3.26-.44.11-.35.25-.67.59-.87.09-.05.2-.2.18-.29-.15-.62.39-.71.69-1.03l.24.48c.23-.26.42-.49.61-.72v-.1c-.44.06-.66-.14-.82-.49-.2-.44-.43-.45-.79-.11-.15.15-.3.32-.45.47.18-.67.58-1.06,1.27-1.13.5-.05.77-.29.79-.68.03-.44-.35-.53-.67-.68-.35-.19-.69-.42-1.03-.63-.29-.19-.58-.39-.82-.55-.14.19-.23.43-.34.45-.13.01-.33-.14-.42-.28-.24-.33-.61-.39-.96-.42-.48-.05-.63.13-.53.61.04.23.21.44.39.62.16.16.23.38.08.52-.29.28-.16.52-.04.78.05.13.08.24.13.37-.44.14-.66.03-.79-.49-.09-.34-.26-.49-.62-.55-.4-.06-.81-.16-1.21-.29-.57-.16-.81-.79-.42-1.22.37-.42.64-.93,1.22-1.16.09-.04.18-.21.19-.34.01-.1-.08-.23-.16-.3-.19-.18-.49-.28-.58-.48-.14-.37-.44-.34-.71-.4-.63-.15-.78-.04-.74.59.01.14.23.26.33.39.04.04.05.09.05.1-.55.35-1.15-.37-1.65.16-.24-.09-.5-.13-.68-.28-.57-.48-1.18-.78-1.94-.64-.21.04-.33-.01-.47-.18-.21-.28-.48-.53-.76-.76-.24-.19-1.11-.15-1.25.09-.21.39-.47.54-.88.3-.05.09-.09.14-.09.18.03.37-.09.5-.48.45-.19-.03-.44.16-.58.33-.18.18-.28.44-.43.69.05.05.11.13.2.23-.48.13-.93.24-1.39.37l-.57-.53C9.48,2.46,14.4.25,19.82.25Zm6.86,6.08c-.19-.23-.34-.42-.5-.58-.32-.3-.39-.61-.2-.98-.13-.11-.26-.24-.42-.37.25-.33.18-.58-.16-.74-.25-.13-.53-.18-.77-.29-.3-.15-.58-.37-.88-.52-.78-.39-1.65-.48-2.51-.63-.11-.01-.25.05-.4.09.06.14.11.23.18.34-.16.04-.29.06-.48.1.06.19.14.32.14.45.03.48.25.67.72.67.34,0,.71.08,1.03.2.4.15.79.39,1.18.61.09.05.16.14.23.21.2.24.37.5.59.71.25.23.54.42.84.57.4.21.83.42,1.41.16Zm-2.11,13.81c.25-.06.45-.11.68-.18-.11-.38-.44-.34-.71-.44-.59-.23-.55.47-.89.63.43-.09.62.63,1.13.32-.08-.11-.14-.2-.21-.33Zm-1.27-13.27c.06-.24.19-.44.14-.52-.11-.15-.32-.23-.54-.37h.55c-.13-.23-.18-.45-.32-.52-.52-.24-1.06-.44-1.6-.63-.4-.14-.82-.28-1.24-.35-.23-.05-.48.01-.69.08-.09.04-.19.28-.15.37.06.13.23.23.37.28.53.16,1.25-.25,1.51.4.29.03.49.05.74.08-.24.26-.42.47-.59.68.66.18,1.25.35,1.82.5Zm-.91,12.78c.26.26.92.21,1.15-.19-.26-.08-.53-.08-.71-.2-.49-.38-1.07-.4-1.61-.49-.44-.06-.82.16-1.17.42.3.04.61,0,.89.01.53.01,1.06.05,1.45.45Zm-1.92-16.6c.01-.32-.1-.48-.42-.4-.29.06-.58.16-.87.25,0,.04.01.08.01.11.14.06.26.13.42.2-.06.21-.1.43-.15.66.71.1.95-.1,1.01-.82Z"/>
    <path class="cls-2" d="m33.66,25.37c.08.03.13.21.1.3-.13.48-.24.98-.43,1.44-.29.69-.64,1.37-.96,2.05-.18.38-.35.74-.5,1.13-.33.78-1.1,1.1-1.68,1.6-.13.11-.28.23-.35.37-.54,1.05-1.5,1.69-2.31,2.47-.09.09-.25.1-.35.18-.23.15-.43.32-.63.49-.09.06-.13.18-.21.23-.61.33-1.21.62-1.79.97-.42.25-.78.59-1.16.89-.18.14-.35.3-.54.43-.2.15-.52.16-.53.53,0,.05-.24.15-.38.15-.21.01-.44-.04-.79-.08.29-.37.5-.67.74-.96.18-.21.4-.37.44-.71.01-.25.25-.49.43-.71.97-1.16,1.58-2.5,1.84-3.98.04-.24.01-.42-.24-.5-.03-.01-.05-.04-.08-.04-.89-.32-1.5-.86-1.75-1.83-.1-.35-.5-.64-.78-.93-.39-.4-.42-.63-.08-1.06.06-.08.11-.24.08-.3-.33-.47-.03-.86.16-1.25.09-.18.23-.34.38-.47.63-.52.5-1.4.16-1.93-.1-.14-.2-.21-.29-.21l-.06-.4c.16-.04.33.01.49.09.25.11.39.04.58-.18.32-.35.67-.67,1.03-.97.09-.08.32-.14.39-.09.43.3.95.29,1.37.23.92-.13,1.7.13,2.45.62.38.25.78.38,1.25.28.25-.06.43.04.55.28.05.13.11.24.2.34.33.38.47.79.24,1.21.73-.01,1.4-.06,2.08-.03.32.01.62.2.92.34Z"/>
    <path class="cls-2" d="m26.17,5.75c.16.16.32.35.5.58-.58.25-1.01.05-1.41-.16-.3-.15-.59-.34-.84-.57-.23-.2-.39-.47-.59-.71-.06-.08-.14-.16-.23-.21-.39-.21-.78-.45-1.18-.61-.33-.13-.69-.2-1.03-.2-.47,0-.69-.19-.72-.67,0-.14-.08-.26-.14-.45.19-.04.32-.06.48-.1-.06-.11-.11-.2-.18-.34.15-.04.29-.1.4-.09.86.15,1.73.24,2.51.63.3.15.58.37.88.52.24.11.52.16.77.29.34.16.42.42.16.74.15.13.29.25.42.37-.19.38-.11.68.2.98Z"/>
    <path class="cls-2" d="m25.25,19.97c-.23.06-.43.11-.68.18.08.13.14.21.21.33-.52.32-.71-.4-1.13-.32.34-.16.3-.86.89-.63.26.1.59.06.71.44Z"/>
    <path class="cls-1" d="m24.36,31.68c.25.09.28.26.24.5-.26,1.49-.87,2.82-1.84,3.98-.18.21-.42.45-.43.71-.04.34-.26.49-.44.71-.24.29-.45.59-.74.96.35.04.58.09.79.08l.09.66c-.73.09-1.46.13-2.21.13C9.02,39.39.26,30.63.26,19.81.26,14.43,2.42,9.57,5.94,6.04l.57.53c.09.13.18.19.24.18.5-.08,1.01-.15,1.49-.29.3-.08.5-.61.91-.16.53-.1.81.38.92.64.29.69.61,1.44.42,2.24-.04.16.04.38.11.54.11.24.28.47.42.69-.4-.1-.49.14-.59.38-.19.45-.38.88-.55,1.34-.37.92-.19,1.83.35,2.57.37.5.57,1.05.76,1.6.1.32.13.66.24.95.16.38.38.73.59,1.07.11.16.3.28.44.42.04-.03.06-.05.1-.08-.35-.92-.71-1.83-1.05-2.75.05-.01.1-.04.15-.06.08.2.14.42.25.59.5.81,1.05,1.58,1.53,2.38.15.25.24.57.26.86.03.25.08.42.3.54.67.37,1.32.76,1.97,1.15.28.16.54.23.82.06.25-.15.47-.1.68.1.35.34.72.69,1.26.69.47.01.86.19,1.08.58.39.67,1.03.93,1.68,1.25.28.14.45.13.62-.16.08-.15.16-.23.26-.23.09,0,.19.08.29.21.34.53.47,1.41-.16,1.93-.15.13-.29.29-.38.47-.19.39-.49.78-.16,1.25.04.06-.01.23-.08.3-.34.43-.32.66.08,1.06.28.29.68.58.78.93.25.97.86,1.51,1.75,1.83.03,0,.05.03.08.04Z"/>
    <path class="cls-2" d="m24.55,10.95v.1c-.19.23-.38.45-.61.72l-.24-.48c-.3.33-.84.42-.69,1.03.03.09-.09.24-.18.29-.34.2-.48.52-.59.87-.04.14-.14.25-.26.44.38.61-.1,1.02-.53,1.44-.08.08-.16.14-.24.21-.28.26-.39.54-.2.93.15.32.24.67.33,1.02.04.15-.01.33-.03.49l-.15.08c-.24-.3-.55-.57-.71-.91-.16-.39-.42-.55-.79-.59-.19-.03-.38-.04-.55-.05-.32-.01-.64-.04-.54.48-.4-.08-.74-.14-1.1-.19-.48-.08-1.05.25-1.21.71-.08.24-.15.48-.24.72-.29.84.16,1.46.64,2.07.25.33,1.25.2,1.47-.15.05-.08.09-.16.14-.24.34-.57.44-.62,1.18-.45-.09.28-.18.54-.29.82-.38.95-.3,1.06.71,1.03.78-.01.84.06.83.84,0,.15.01.29.01.44.01.66.55,1,1.12.71.1-.05.19-.08.26-.08l.06.4c-.1,0-.19.08-.26.23-.16.29-.34.3-.62.16-.64-.32-1.29-.58-1.68-1.25-.23-.39-.62-.57-1.08-.58-.54,0-.91-.35-1.26-.69-.21-.2-.43-.25-.68-.1-.28.16-.54.1-.82-.06-.64-.39-1.3-.78-1.97-1.15-.23-.13-.28-.29-.3-.54-.03-.29-.11-.61-.26-.86-.48-.81-1.02-1.58-1.53-2.38-.11-.18-.18-.39-.25-.59-.05.03-.1.05-.15.06.34.92.69,1.83,1.05,2.75-.04.03-.06.05-.1.08-.14-.14-.33-.25-.44-.42-.21-.34-.43-.69-.59-1.07-.11-.29-.14-.63-.24-.95-.19-.55-.39-1.1-.76-1.6-.54-.74-.72-1.65-.35-2.57.18-.45.37-.88.55-1.34.1-.24.19-.48.59-.38-.14-.23-.3-.45-.42-.69-.08-.16-.15-.38-.11-.54.19-.81-.13-1.55-.42-2.24-.11-.26-.39-.74-.92-.64-.4-.44-.61.09-.91.16-.48.14-.98.21-1.49.29-.06.01-.15-.05-.24-.18.45-.13.91-.24,1.39-.37-.09-.1-.15-.18-.2-.23.15-.25.25-.52.43-.69.14-.16.39-.35.58-.33.39.05.5-.09.48-.45,0-.04.04-.09.09-.18.42.24.67.09.88-.3.14-.24,1.01-.28,1.25-.09.28.23.54.48.76.76.14.16.25.21.47.18.76-.14,1.37.16,1.94.64.18.15.44.19.68.28.5-.53,1.1.19,1.65-.16,0-.01-.01-.06-.05-.1-.1-.13-.32-.25-.33-.39-.04-.63.11-.74.74-.59.26.06.57.04.71.4.09.2.39.3.58.48.09.08.18.2.16.3-.01.13-.1.3-.19.34-.58.23-.86.74-1.22,1.16-.39.43-.15,1.06.42,1.22.4.13.81.23,1.21.29.35.06.53.21.62.55.14.52.35.63.79.49-.05-.13-.08-.24-.13-.37-.13-.26-.25-.5.04-.78.15-.14.09-.35-.08-.52-.18-.18-.35-.39-.39-.62-.1-.48.05-.66.53-.61.35.03.72.09.96.42.09.14.29.29.42.28.11-.03.2-.26.34-.45.24.16.53.37.82.55.34.21.68.44,1.03.63.32.15.69.24.67.68-.03.39-.29.63-.79.68-.69.08-1.1.47-1.27,1.13.15-.15.3-.32.45-.47.37-.34.59-.33.79.11.16.35.38.55.82.49Z"/>
    <path class="cls-2" d="m23.44,6.35c.05.08-.08.28-.14.52-.57-.15-1.16-.33-1.82-.5.18-.21.35-.42.59-.68-.25-.03-.45-.05-.74-.08-.26-.66-.98-.24-1.51-.4-.14-.05-.3-.15-.37-.28-.04-.09.06-.33.15-.37.21-.06.47-.13.69-.08.42.08.83.21,1.24.35.54.19,1.08.39,1.6.63.14.06.19.29.32.52h-.55c.23.14.43.21.54.37Z"/>
    <path class="cls-2" d="m23.54,19.46c-.23.4-.88.45-1.15.19-.39-.4-.92-.44-1.45-.45-.29-.01-.59.03-.89-.01.35-.25.73-.48,1.17-.42.54.09,1.12.11,1.61.49.18.13.44.13.71.2Z"/>
    <path class="cls-2" d="m20.06,2.65c.32-.08.43.09.42.4-.06.72-.3.92-1.01.82.05-.23.09-.44.15-.66-.15-.08-.28-.14-.42-.2,0-.04-.01-.08-.01-.11.29-.09.58-.19.87-.25Z"/>
  </g>
  <text class="cls-3" transform="translate(15.85 30.89)"><tspan x="0" y="0">V</tspan></text>
  <text class="cls-3" transform="translate(7.72 22.23)"><tspan x="0" y="0">V</tspan></text>
</svg>