<?xml version="1.0" encoding="utf-8"?>
<!-- Generator: Adobe Illustrator 27.4.0, SVG Export Plug-In . SVG Version: 6.00 Build 0)  -->
<svg version="1.1" id="Layer_1" xmlns="http://www.w3.org/2000/svg" xmlns:xlink="http://www.w3.org/1999/xlink" x="0px" y="0px"
	 viewBox="0 0 65.2 59.9" style="enable-background:new 0 0 65.2 59.9;" xml:space="preserve">
<style type="text/css">
	.st0{fill:none;stroke:#978971;stroke-width:5;stroke-linecap:round;stroke-linejoin:round;}
	.st1{fill:none;stroke:#978971;stroke-width:3;stroke-linecap:round;stroke-linejoin:round;}
	.st2{fill:#978971;}
	.st3{display:none;fill:none;stroke:#000000;stroke-width:0.25;stroke-miterlimit:10;}
</style>
<path class="st0" d="M44.4,22.8L19.5,8.4c-1.6,2.8-5.1,3.7-7.9,2.1L5.6,20.8c2.8,1.6,3.7,5.2,2.1,7.9l24.9,14.4h-0.1l24.9-14.4
	c-1.6-2.8-0.7-6.3,2.1-7.9l-5.9-10.3c-2.8,1.6-6.3,0.6-7.9-2.1L20.8,22.8l0-0.1v28.8c3.2,0,5.8,2.6,5.8,5.8h11.8
	c0-3.2,2.6-5.8,5.8-5.8L44.4,22.8"/>
<ellipse class="st1" cx="32.6" cy="30" rx="10.4" ry="10.4"/>
<ellipse class="st2" cx="32.6" cy="30" rx="3.2" ry="3.2"/>
<line class="st3" x1="32.6" y1="-2.3" x2="32.6" y2="62.2"/>
<line class="st3" x1="-2.5" y1="30" x2="67.7" y2="30"/>
</svg>
