<?xml version="1.0" encoding="iso-8859-1"?>
<svg fill="#60cfcf" height="800px" width="800px" version="1.1" id="Layer_1" xmlns="http://www.w3.org/2000/svg" xmlns:xlink="http://www.w3.org/1999/xlink" 
	 viewBox="0 0 512 512" xml:space="preserve">
<g>
	<g>
		<path d="M316.962,322.094l-43.817,25.294v87.885c45.578-5.468,86.207-32.967,111.359-74.186
			C370.198,352.828,343.427,337.372,316.962,322.094z"/>
	</g>
</g>
<g>
	<g>
		<path d="M112.791,204.216c-14.742,40.132-14.835,85.695,0,126.036c43.482-25.1,36.881-21.292,65.334-37.719v-50.599
			C127.954,212.976,144.436,222.49,112.791,204.216z"/>
	</g>
</g>
<g>
	<g>
		<path d="M127.651,173.381c31.431,18.14,24.538,14.159,67.541,38.993l43.818-25.294V99.195
			C194.875,104.499,153.506,130.926,127.651,173.381z"/>
	</g>
</g>
<g>
	<g>
		<path d="M195.192,322.094c-45.333,26.17-29.635,17.107-67.552,39.004c24.604,40.322,64.867,68.595,111.37,74.175v-87.885
			L195.192,322.094z"/>
	</g>
</g>
<g>
	<g>
		<polygon points="256.077,216.641 212.259,241.935 212.259,292.534 256.077,317.827 299.894,292.534 299.894,241.935 		"/>
	</g>
</g>
<g>
	<g>
		<path d="M273.144,99.195v87.885l43.818,25.294c36.703-21.194,24.885-14.371,67.53-38.993
			C359.862,132.893,319.412,104.755,273.144,99.195z"/>
	</g>
</g>
<g>
	<g>
		<path d="M399.363,204.216c-37.373,21.581-14.582,8.426-65.334,37.719v50.599c20.118,11.615,24.092,13.912,65.334,37.719
			C414.243,289.786,414.051,244.201,399.363,204.216z"/>
	</g>
</g>
<g>
	<g>
		<path d="M256.077,0c-33.55,0-63.126,22.702-63.126,75.711c40.682-15.561,85.482-15.588,126.253-0.011
			C319.203,24.224,290.969,0,256.077,0z"/>
	</g>
</g>
<g>
	<g>
		<path d="M392.092,126.469c24.763,27.86,41.356,62.223,48.471,98.82c0.057,0.273,0.102,0.535,0.148,0.808
			C518.903,181.711,458.463,88.935,392.092,126.469z"/>
	</g>
</g>
<g>
	<g>
		<path d="M439.858,312.639c-0.034,0.205-0.08,0.41-0.125,0.614c-7.771,36.185-24.924,70.387-50.588,97.978
			C453.384,449.558,517.275,358.889,439.858,312.639z"/>
	</g>
</g>
<g>
	<g>
		<path d="M71.431,226.096c7.636-36.662,22.269-70.117,48.63-99.616C54.506,89.267-7.499,181.294,71.431,226.096z"/>
	</g>
</g>
<g>
	<g>
		<path d="M72.296,312.639c-76.955,45.974-14.563,137.544,50.724,98.592C95.834,382.171,77.177,341.966,72.296,312.639z"/>
	</g>
</g>
<g>
	<g>
		<path d="M224.832,467.644l15.725,34.396c6.074,13.292,24.979,13.266,31.04,0l15.725-34.396
			C267.108,471.286,245.822,471.426,224.832,467.644z"/>
	</g>
</g>
</svg>