<?xml version="1.0" encoding="utf-8"?>
<svg id="Layer_1" data-name="Layer 1" xmlns="http://www.w3.org/2000/svg" viewBox="0 0 383.19 383.31" xmlns:bx="https://boxy-svg.com" width="383.19px" height="383.31px">
  <defs>
    <style>
      .cls-1 {
        stroke-width: 0px;
      }
      .cls-1 {
        fill: #e0d4c5;
      }
    </style>
  </defs>
  <path class="cls-1" id="rightLeg" d="M 103.26 383.31 C 98.89 380.72 98.13 376.93 99.06 372.2 C 101.8 358.14 108.47 346.42 119.26 336.99 C 121.53 335.01 123.84 334.08 126.94 334.04 C 149.1 333.79 171.28 334.31 193.42 333.15 C 198.13 332.9 202.86 332.38 207.5 331.55 C 210.37 331.04 210.66 331.99 210.1 334.32 C 204.71 356.74 191.34 371.99 169.45 379.57 C 161.82 382.21 153.87 382.64 145.87 382.6 C 144.9 382.6 103.26 383.3 103.26 383.3 L 103.26 383.31 Z"/>
  <path class="cls-1" id="leftLeg" d="M -0.01 279.31 C -0.01 279.31 0.7 232.92 0.75 230.71 C 1.36 203.68 19.1 180.7 45.1 173.45 C 52.22 171.46 52.11 171.45 51.11 178.78 C 50.07 186.32 49.6 193.91 49.53 201.52 C 49.36 219.85 49.17 238.18 49.1 256.51 C 49.1 258.92 48.38 260.78 46.85 262.58 C 37.03 274.17 24.62 281.11 9.67 283.7 C 5.28 284.46 2.31 282.77 -0.01 279.31 Z"/>
  <path class="cls-1" d="M316.15,117.17c-12.29-20.39-28.18-36.59-48.11-48.74-1.58-.96-1.81-1.48-.5-2.92,12.04-13.22,21.81-28.02,30.85-43.41,9.64-16.42,28.34-24.45,47.4-21.1,17.79,3.13,32.63,17.73,36.39,35.8,3.79,18.26-3.91,37.11-19.71,47.36-7.92,5.14-16.33,9.5-24.02,15.02-7.69,5.52-15.03,11.46-22.3,18Z"/>
  <path class="cls-1" d="M178.91,244.77c-1.73.33-2.29-.62-2.97-1.3-12-11.98-23.98-23.99-36.01-35.94-1.1-1.09-1.38-1.98-.95-3.56,4.44-16.32,8.76-32.66,13.08-49.01.46-1.73,1.32-2.55,3.18-3.03,16.12-4.2,32.21-8.53,48.27-12.94,1.95-.54,3.18-.26,4.6,1.18,11.77,11.86,23.59,23.67,35.47,35.42,1.34,1.33,1.58,2.51,1.11,4.25-4.39,16.2-8.74,32.41-13.03,48.64-.48,1.8-1.39,2.56-3.17,3.03-16.23,4.27-32.43,8.66-48.64,13.01-.48.13-.96.26-.94.26Z"/>
  <path class="cls-1" d="M335.25,183.69c26.87,5.03,47.48,28.84,47.76,55.6.33,31.16.12,62.33.08,93.49,0,6.05-4.2,9.36-10.12,8.27-28.67-5.3-48.7-29.28-48.88-58.51-.03-4.49.1-8.98-.02-13.46-.39-14.19.24-27.98,5.45-41.7,5.22-13.76,6.28-28.63,5.73-43.68Z"/>
  <path class="cls-1" d="M198.74,48.1c-9.24-.19-18.27.46-27.25,1.99-9.85,1.68-19.4,4.32-28.65,8.04-1.89.76-3.75,1.16-5.78,1.11-14.69-.34-29.42.79-44.09-.63-25.09-2.43-47.27-23.64-50.96-48.45-.89-5.97,2.43-9.93,8.53-9.94,30.91-.03,61.83-.57,92.72.19,23.63.59,39.74,13.89,50.58,34.17,2.22,4.16,3.9,8.57,4.89,13.53Z"/>
  <path class="cls-1" d="M 71.06 273.623 C 71.26 273.623 71.75 254.08 71.63 244.37 C 71.6 242.15 72.34 241.15 74.41 240.39 C 89.8 234.77 105.16 229.06 120.5 223.3 C 122.34 222.61 123.51 222.72 125 224.23 C 136.29 235.67 147.67 247.03 159.11 258.32 C 160.58 259.77 160.83 260.89 160.04 262.79 C 153.64 278.15 147.3 293.53 141.09 308.96 C 140.23 311.1 139.08 311.6 136.96 311.61 C 118.9 311.74 100.83 312 82.77 312.19 C 74.43 312.28 71.06 308.84 71.07 300.44 C 71.08 291.47 71.06 282.593 71.06 273.623 Z"/>
  <path class="cls-1" d="M263.81,162.36c-1.7.49-2.44-.66-3.3-1.51-12.51-12.5-24.99-25.04-37.55-37.48-1.32-1.31-1.61-2.6-1.42-4.3,1.58-13.72,3.16-27.45,4.63-41.18.29-2.69,1.08-3.13,3.7-2.25,40.02,13.46,66.28,40.26,78.65,80.66.43,1.39,1.42,2.92-1.29,3.1-14.54.97-29.07,1.99-43.42,2.98Z"/>
  <path class="cls-1" d="M204.16,73.28c-1.54,13.79-3.11,27.64-4.61,41.5-.17,1.61-.91,2.37-2.43,2.77-16.45,4.35-32.9,8.68-49.3,13.18-1.94.53-2.8-.54-3.89-1.39-9.76-7.72-19.45-15.54-29.26-23.2-1.89-1.48-1.93-2.21-.16-3.85,17.42-16.22,37.94-26.1,61.31-30.2,8.49-1.49,17.06-1.86,25.68-1.48,1.78.08,3.39.11,2.66,2.67Z"/>
  <path class="cls-1" d="M312.79,190.74c-.89,29.68-11.32,55.51-31.27,77.53-1.83,2.02-2.72,2.41-4.62-.06-7.37-9.58-14.94-19-22.56-28.39-1.42-1.75-1.71-3.29-1.12-5.43,4.23-15.47,8.38-30.96,12.44-46.47.61-2.33,1.46-3.45,4.14-3.6,13.56-.78,27.11-1.78,40.65-2.81,1.85-.14,2.45.29,2.36,2.13-.12,2.36-.03,4.74-.03,7.1Z"/>
  <path class="cls-1" d="M164.57,310.76c5.77-14.09,11.55-28.21,17.32-42.34.48-1.18,1.33-1.59,2.52-1.9,16.46-4.37,32.91-8.79,49.35-13.26,1.71-.47,2.7,0,3.78,1.36,7.63,9.7,15.3,19.36,23.06,28.94,1.34,1.65.91,2.28-.63,3.34-20.45,14.1-43.01,22.28-67.81,23.77-9.06.54-18.17.09-27.58.09Z"/>
  <path class="cls-1" d="M72.18,217.01c-1.98-33.57,4.29-65.02,23.75-93.14,1.47-2.13,2.27-2.39,4.38-.66,9.33,7.66,18.8,15.15,28.32,22.58,1.74,1.36,2.12,2.57,1.54,4.66-4.35,15.93-8.58,31.9-12.87,47.85-.38,1.41-.75,2.65-2.53,3.29-14,5.08-27.94,10.31-41.9,15.48-.2.08-.48-.04-.69-.06Z"/>
</svg>